<?xml version="1.0" encoding="utf-8"?>
<!-- Generator: Adobe Illustrator 25.2.3, SVG Export Plug-In . SVG Version: 6.00 Build 0)  -->
<svg version="1.1" id="Ebene_1" xmlns="http://www.w3.org/2000/svg" xmlns:xlink="http://www.w3.org/1999/xlink" x="0px" y="0px"
	 viewBox="0 0 2383.94 2228.03" style="enable-background:new 0 0 2383.94 2228.03;" xml:space="preserve">
<style type="text/css">
	.st0{font-family:'BallyhaunisNF';}
	.st1{font-size:396.4196px;}
	.st2{font-size:417.7332px;}
	.st3{font-size:189.694px;}
	.st4{fill:#E42321;}
</style>
<text transform="matrix(2.4 0 0 1 -28.0379 1230.731)" class="st0 st1">S</text>
<text transform="matrix(2.4 0 0 1 1065.1429 2214.7837)" class="st0 st1">1</text>
<text transform="matrix(2.7999 -0.0192 6.860000e-03 1 877.3728 276.1917)" class="st0 st2">2</text>
<text transform="matrix(2.4 0 0 1 926.2208 1230.731)" class="st0 st1"> </text>
<text transform="matrix(2.4 0 0 1 1059.1544 1173.353)" class="st0 st3"> </text>
<text transform="matrix(2.4 0 0 1 975.3868 1181.1284)" class="st0 st3"> </text>
<path d="M2243.4,1189.31c-10.21,9.42-23.39,17.61-39.55,24.58c-16.16,6.96-34.59,12.35-55.28,16.18
	c-20.71,3.82-42.95,5.73-66.77,5.73c-35.16,0-65.78-3.35-91.85-10.06c-26.09-6.7-47.63-15.66-64.64-26.87
	c-17.01-11.21-29.77-24.07-38.27-38.56c-8.5-14.5-13.71-36.86-13.71-56.28c0-2.54,0,2.32,0-4.14c0-5.75,0-2.21,0-4.47
	c0-19.94,5.21-39.31,13.71-53.8c8.51-14.49,21.26-27.35,38.27-38.56c17.01-11.21,38.55-20.17,64.64-26.87
	c26.07-6.7,56.69-10.06,91.85-10.06c23.81,0,46.06,1.91,66.77,5.73c20.69,3.83,39.12,9.22,55.28,16.18
	c16.16,6.96,29.34,15.16,39.55,24.58c10.21,9.42,16.72,19.87,19.56,31.34l116.52-13.11c-15.31-14.47-33.46-26.83-54.43-37.07
	c-20.98-10.24-44.37-18.64-70.17-25.19c-25.81-6.55-53.58-11.4-83.35-14.54c-29.77-3.14-60.81-4.71-93.13-4.71
	c-44.23,0-85.9,3.89-125.02,11.67c-39.12,7.78-73.57,18.43-103.33,31.95c-29.77,13.52-53.3,29.49-70.59,47.93
	c-17.23,18.35-25.86,38.27-25.93,59.73h0c0,0.04,0,0.09,0,0.13c0,0.05,0,0.1,0,0.15c0,0.02,0,0.04,0,0.07c0,0.02,0,0.04,0,0.07
	c0,0.05,0,0.1,0,0.15c0,0.04,0,0.09,0,0.13h0c0.07,21.46,8.71,41.38,25.93,59.73c17.29,18.43,40.82,34.41,70.59,47.93
	c29.77,13.52,64.21,24.17,103.33,31.95c39.12,7.78,80.8,11.67,125.02,11.67c32.32,0,63.36-1.57,93.13-4.71
	c29.77-3.14,57.54-7.99,83.35-14.54c25.79-6.55,49.18-14.95,70.17-25.19c20.97-10.24,39.12-22.6,54.43-37.07l-116.52-13.11
	C2260.11,1169.44,2253.6,1179.88,2243.4,1189.31z"/>
</svg>
