<?xml version="1.0" encoding="utf-8"?>
<!-- Generator: Adobe Illustrator 25.2.3, SVG Export Plug-In . SVG Version: 6.00 Build 0)  -->
<svg version="1.1" id="Ebene_1" xmlns="http://www.w3.org/2000/svg" xmlns:xlink="http://www.w3.org/1999/xlink" x="0px" y="0px"
	 viewBox="0 0 2383.94 2177.01" style="enable-background:new 0 0 2383.94 2177.01;" xml:space="preserve">
<style type="text/css">
	.st0{font-family:'BallyhaunisNF';}
	.st1{font-size:396.4196px;}
	.st2{font-size:189.694px;}
	.st3{fill:#E42321;}
</style>
<text transform="matrix(2.4 0 0 1 -27.2491 1208.2333)" class="st0 st1">S</text>
<path d="M2244.18,1166.81c-10.21,9.42-23.39,17.61-39.55,24.58c-16.16,6.96-34.59,12.35-55.28,16.18
	c-20.71,3.82-42.95,5.73-66.77,5.73c-35.16,0-65.78-3.35-91.85-10.06c-26.09-6.7-47.63-15.66-64.64-26.87
	c-17.01-11.21-29.77-24.07-38.27-38.56c-8.5-14.5-13.71-36.86-13.71-56.28c0-2.54,0,2.32,0-4.14c0-5.75,0-2.21,0-4.47
	c0-19.94,5.21-39.31,13.71-53.8c8.51-14.49,21.26-27.35,38.27-38.56c17.01-11.21,38.55-20.17,64.64-26.87
	c26.07-6.7,56.69-10.06,91.85-10.06c23.81,0,46.06,1.91,66.77,5.73c20.69,3.83,39.12,9.22,55.28,16.18
	c16.16,6.96,29.34,15.16,39.55,24.58c10.21,9.42,16.72,19.87,19.56,31.34l116.52-13.11c-15.31-14.47-33.46-26.83-54.43-37.07
	c-20.98-10.24-44.37-18.64-70.17-25.19c-25.81-6.55-53.58-11.4-83.35-14.54c-29.77-3.14-60.81-4.71-93.13-4.71
	c-44.23,0-85.9,3.89-125.02,11.67c-39.12,7.78-73.57,18.43-103.33,31.95c-29.77,13.52-53.3,29.49-70.59,47.93
	c-17.23,18.35-25.86,38.27-25.93,59.73h0c0,0.04,0,0.09,0,0.13c0,0.05,0,0.1,0,0.15c0,0.02,0,0.04,0,0.07c0,0.02,0,0.04,0,0.07
	c0,0.05,0,0.1,0,0.15c0,0.04,0,0.09,0,0.13h0c0.07,21.46,8.71,41.38,25.93,59.73c17.29,18.43,40.82,34.41,70.59,47.93
	c29.77,13.52,64.21,24.17,103.33,31.95c39.12,7.78,80.8,11.67,125.02,11.67c32.32,0,63.36-1.57,93.13-4.71
	c29.77-3.14,57.54-7.99,83.35-14.54c25.79-6.55,49.18-14.95,70.17-25.19c20.97-10.24,39.12-22.6,54.43-37.07l-116.52-13.11
	C2260.9,1146.95,2254.39,1157.39,2244.18,1166.81z"/>
<text transform="matrix(2.4 0 0 1 916.2307 1197.8859)" class="st0 st1"> </text>
<text transform="matrix(2.4 0 0 1 1017.7531 138.5431)" class="st0 st2">E</text>
<text transform="matrix(2.4 0 0 1 978.6008 643.3185)" class="st0 st2">V</text>
<text transform="matrix(2.4 0 0 1 1017.7531 1148.0968)" class="st0 st2">E</text>
<text transform="matrix(2.4 0 0 1 1018.6633 1652.8712)" class="st0 st2">N</text>
<text transform="matrix(2.4 0 0 1 943.3147 2157.6465)" class="st0 st2">T</text>
<text transform="matrix(2.4 0 0 1 1753.4602 467.0929)" class="st0 st2">E</text>
<text transform="matrix(2.4 0 0 1 1408.8254 803.798)" class="st0 st2">V</text>
<text transform="matrix(2.4 0 0 1 1049.1643 1140.5079)" class="st0 st2"> </text>
<text transform="matrix(2.4 0 0 1 687.6027 1477.213)" class="st0 st2">N</text>
<text transform="matrix(2.4 0 0 1 246.2961 1813.923)" class="st0 st2">T</text>
<text transform="matrix(2.4 0 0 1 296.1574 498.3927)" class="st0 st2">E</text>
<text transform="matrix(2.4 0 0 1 567.0392 823.3419)" class="st0 st2">V</text>
<text transform="matrix(2.4 0 0 1 965.3967 1148.2833)" class="st0 st2"> </text>
<text transform="matrix(2.4 0 0 1 1374.2258 1473.2325)" class="st0 st2">N</text>
<text transform="matrix(2.4 0 0 1 1684.9338 1798.174)" class="st0 st2">T</text>
</svg>
