<?xml version="1.0" encoding="utf-8"?>
<!-- Generator: Adobe Illustrator 25.2.3, SVG Export Plug-In . SVG Version: 6.00 Build 0)  -->
<svg version="1.1" id="Ebene_1" xmlns="http://www.w3.org/2000/svg" xmlns:xlink="http://www.w3.org/1999/xlink" x="0px" y="0px"
	 viewBox="0 0 2383.94 2177.01" style="enable-background:new 0 0 2383.94 2177.01;" xml:space="preserve">
<style type="text/css">
	.st0{font-family:'BallyhaunisNF';}
	.st1{font-size:396.4196px;}
	.st2{font-size:189.694px;}
	.st3{fill:#E42321;}
</style>
<text transform="matrix(2.4 0 0 1 917.3102 1197.806)" class="st0 st1"> </text>
<text transform="matrix(2.4 0 0 1 1015.8327 138.4633)" class="st0 st2">S</text>
<text transform="matrix(2.4 0 0 1 1018.6804 643.2387)" class="st0 st2">P</text>
<text transform="matrix(2.4 0 0 1 1020.8328 1148.017)" class="st0 st2">A</text>
<text transform="matrix(2.4 0 0 1 1031.7429 1652.7914)" class="st0 st2">C</text>
<text transform="matrix(2.4 0 0 1 1022.8804 2157.5669)" class="st0 st2">E</text>
<text transform="matrix(2.4 0 0 1 1754.5398 467.0131)" class="st0 st2">S</text>
<text transform="matrix(2.4 0 0 1 1411.905 803.7182)" class="st0 st2">P</text>
<text transform="matrix(2.4 0 0 1 1050.2439 1140.4281)" class="st0 st2"> </text>
<text transform="matrix(2.4 0 0 1 687.6823 1477.1332)" class="st0 st2">C</text>
<text transform="matrix(2.4 0 0 1 292.3758 1813.8431)" class="st0 st2">E</text>
<text transform="matrix(2.4 0 0 1 279.237 498.3129)" class="st0 st2">S</text>
<text transform="matrix(2.4 0 0 1 617.1189 823.2621)" class="st0 st2">P</text>
<text transform="matrix(2.4 0 0 1 966.4763 1148.2035)" class="st0 st2"> </text>
<text transform="matrix(2.4 0 0 1 1375.3054 1473.1527)" class="st0 st2">C</text>
<text transform="matrix(2.4 0 0 1 1756.0134 1798.0941)" class="st0 st2">E</text>
<text transform="matrix(2.4 0 0 1 -29.3071 1208.1537)" class="st0 st1">S</text>
<path d="M2242.13,1166.73c-10.21,9.42-23.39,17.61-39.55,24.58c-16.16,6.96-34.59,12.35-55.28,16.18
	c-20.71,3.82-42.95,5.73-66.77,5.73c-35.16,0-65.78-3.35-91.85-10.06c-26.09-6.7-47.63-15.66-64.64-26.87
	c-17.01-11.21-29.77-24.07-38.27-38.56c-8.5-14.5-13.71-36.86-13.71-56.28c0-2.54,0,2.32,0-4.14c0-5.75,0-2.21,0-4.47
	c0-19.94,5.21-39.31,13.71-53.8c8.51-14.49,21.26-27.35,38.27-38.56c17.01-11.21,38.55-20.17,64.64-26.87
	c26.07-6.7,56.69-10.06,91.85-10.06c23.81,0,46.06,1.91,66.77,5.73c20.69,3.83,39.12,9.22,55.28,16.18
	c16.16,6.96,29.34,15.16,39.55,24.58c10.21,9.42,16.72,19.87,19.56,31.34l116.52-13.11c-15.31-14.47-33.46-26.83-54.43-37.07
	c-20.98-10.24-44.37-18.64-70.17-25.19c-25.81-6.55-53.58-11.4-83.35-14.54c-29.77-3.14-60.81-4.71-93.13-4.71
	c-44.23,0-85.9,3.89-125.02,11.67c-39.12,7.78-73.57,18.43-103.33,31.95c-29.77,13.52-53.3,29.49-70.59,47.93
	c-17.23,18.35-25.86,38.27-25.93,59.73h0c0,0.04,0,0.09,0,0.13c0,0.05,0,0.1,0,0.15c0,0.02,0,0.04,0,0.07c0,0.02,0,0.04,0,0.07
	c0,0.05,0,0.1,0,0.15c0,0.04,0,0.09,0,0.13h0c0.07,21.46,8.71,41.38,25.93,59.73c17.29,18.43,40.82,34.41,70.59,47.93
	c29.77,13.52,64.21,24.17,103.33,31.95c39.12,7.78,80.8,11.67,125.02,11.67c32.32,0,63.36-1.57,93.13-4.71
	c29.77-3.14,57.54-7.99,83.35-14.54c25.79-6.55,49.18-14.95,70.17-25.19c20.97-10.24,39.12-22.6,54.43-37.07l-116.52-13.11
	C2258.84,1146.87,2252.33,1157.31,2242.13,1166.73z"/>
</svg>
