<?xml version="1.0" encoding="utf-8"?>
<!-- Generator: Adobe Illustrator 25.2.3, SVG Export Plug-In . SVG Version: 6.00 Build 0)  -->
<svg version="1.1" id="Ebene_1" xmlns="http://www.w3.org/2000/svg" xmlns:xlink="http://www.w3.org/1999/xlink" x="0px" y="0px"
	 viewBox="0 0 2227.14 340.2" style="enable-background:new 0 0 2227.14 340.2;" xml:space="preserve">
<style type="text/css">
	.st0{fill:#E42321;}
</style>
<g>
	<path d="M307.31,93.11c0-6.3-3.05-11.57-9.16-15.82c-6.11-4.24-14.11-7.75-24-10.54c-9.89-2.78-21.16-5-33.81-6.63
		c-12.65-1.64-25.52-3.03-38.61-4.18c-13.09-1.15-25.96-2.21-38.61-3.18c-12.65-0.97-23.92-2.21-33.81-3.73
		c-9.89-1.51-17.89-3.42-23.99-5.73c-6.11-2.3-9.17-5.33-9.17-9.09c0-3.39,2.03-6.45,6.11-9.18c4.07-2.73,9.3-5.03,15.71-6.91
		c6.39-1.88,13.45-3.3,21.16-4.27c7.7-0.97,15.19-1.45,22.47-1.45c7.85,0,15.63,0.57,23.34,1.73c7.7,1.15,14.62,2.79,20.73,4.91
		c6.11,2.12,11.05,4.67,14.83,7.64c3.78,2.97,5.67,6.21,5.67,9.73c0,0.97-0.15,1.94-0.44,2.91c-0.29,0.97-0.73,1.94-1.31,2.91
		c8.73-0.97,17.45-1.97,26.18-3c8.73-1.03,17.59-2.02,26.61-3c-2.91-5.21-8-9.79-15.27-13.72c-7.27-3.94-15.85-7.18-25.74-9.73
		c-9.89-2.54-20.72-4.45-32.5-5.73c-11.78-1.27-23.78-1.91-35.99-1.91c-12.22,0-24.8,0.76-37.74,2.27
		c-12.94,1.52-24.72,3.73-35.34,6.63c-10.62,2.91-19.41,6.55-26.39,10.91c-6.98,4.36-10.47,9.45-10.47,15.27
		c0,6.3,2.98,11.51,8.94,15.63c5.96,4.12,13.88,7.54,23.78,10.27c9.89,2.73,21.16,4.91,33.81,6.55c12.65,1.64,25.52,3.09,38.61,4.36
		c13.09,1.27,25.96,2.51,38.61,3.72c12.65,1.21,23.92,2.76,33.81,4.64c9.89,1.88,17.81,4.31,23.78,7.27
		c5.96,2.97,8.95,6.82,8.95,11.54c0,2.91-1.39,5.82-4.15,8.73c-2.77,2.91-6.55,5.51-11.34,7.82c-4.8,2.3-10.4,4.18-16.8,5.63
		c-6.4,1.46-13.24,2.18-20.51,2.18c-10.18,0-19.56-1.09-28.14-3.27c-8.59-2.18-17.53-4.54-26.83-7.09
		c-9.31-2.55-19.49-4.91-30.54-7.09c-11.06-2.18-24-3.27-38.83-3.27c-11.06,0-21.89,0.7-32.5,2.09c-10.62,1.39-20.14,3.39-28.58,6
		c-8.44,2.61-15.27,5.85-20.51,9.72c-5.24,3.88-7.85,8.36-7.85,13.45c0,2.3,0.58,4.36,1.74,6.18l10.47-0.36
		c0.58-3.27,2.68-6.21,6.33-8.81c3.63-2.61,8.29-4.82,13.96-6.63c5.67-1.82,12-3.24,18.98-4.27s14.25-1.55,21.81-1.55
		c15.71,0,29.23,1.94,40.57,5.82c11.35,3.87,18.76,9.03,22.25,15.45h2.62c21.81,0,42.6-1.12,62.38-3.36
		c19.78-2.25,38.24-6.03,55.4-11.36c14.25-4.48,26.03-9.87,35.34-16.18C302.66,107.71,307.31,100.75,307.31,93.11 M601.36,15.49
		c6.11-2.3,13.81-3.93,23.12-4.91l-5.24-5.27c-18.61,1.58-38.11,2.37-58.46,2.37c-10.76,0-21.45-0.25-32.06-0.73
		c-10.62-0.48-21.02-1.21-31.2-2.18l-4.36,6.18c6.69,0,12.65,0.21,17.89,0.63c5.24,0.43,10.32,1.79,15.27,4.09
		c3.19,1.58,5.59,3.34,7.2,5.27c1.6,1.94,2.4,3.94,2.4,6v59.8c0,3.27-0.59,6.76-1.75,10.45c-1.17,3.7-3.13,7.3-5.89,10.81
		c-2.77,3.52-6.62,6.79-11.56,9.82c-4.95,3.03-11.05,5.46-18.32,7.27c-8.15,2.06-16.58,3.09-25.3,3.09s-17.17-1.03-25.31-3.09
		c-7.56-1.82-13.82-4.21-18.76-7.18c-4.95-2.97-8.88-6.18-11.78-9.63c-2.91-3.45-5.02-7.03-6.33-10.72s-1.96-7.18-1.96-10.45V26.94
		c0-2.06,0.87-4.06,2.62-6c1.75-1.94,4.21-3.7,7.42-5.27c4.65-2.18,9.3-3.51,13.96-4c4.65-0.48,10.32-0.73,17.01-0.73h4.36
		l-6.98-8.91c-12.51,2.18-25.45,3.7-38.83,4.54c-13.38,0.85-26.76,1.28-40.14,1.28c-10.18,0-20.36-0.21-30.54-0.64
		c-10.18-0.42-20.36-1.06-30.54-1.91l-4.36,6.55c15.12,0.97,26.98,3.57,35.56,7.82c8.57,4.24,12.87,9.57,12.87,16v57.08
		c0,6.3,1.96,12.3,5.89,18c3.93,5.7,9.82,10.67,17.67,14.9c7.85,4.25,17.81,7.64,29.88,10.18c12.07,2.55,26.4,3.82,42.97,3.82
		c9.88,0,19.63-0.52,29.23-1.55c9.6-1.03,18.9-2.39,27.92-4.09c13.96-2.78,26.32-6.24,37.08-10.36
		c10.75-4.12,19.85-8.76,27.27-13.91c7.42-5.15,13.09-10.66,17.01-16.54c3.93-5.87,5.89-12.03,5.89-18.45V25.31
		C592.19,21.07,595.25,17.8,601.36,15.49 M1090.19,121.52c-2.48-1.82-4.36-3.87-5.67-6.18c-1.31-2.3-2.4-4.55-3.27-6.73
		c-3.2-8.12-4.73-16.33-4.58-24.63c0.14-8.3,0.22-16.51,0.22-24.63c0-7.03-2.48-13.91-7.42-20.63
		c-4.95-6.73-12.22-12.66-21.81-17.81c-9.6-5.15-21.53-9.3-35.77-12.45c-14.26-3.15-30.69-4.72-49.3-4.72
		c-14.55,0-28.58,1.03-42.1,3.09c-13.52,2.06-26.1,4.85-37.73,8.36c-10.77-4.24-22.91-7.27-36.43-9.09
		c-13.52-1.82-27.56-2.73-42.1-2.73c-7.27,0-14.4,0.18-21.38,0.55c-6.98,0.36-14.11,0.79-21.38,1.27
		c-10.76,0.61-21.38,1.18-31.85,1.72c-10.47,0.55-21.23,0.82-32.28,0.82c-7.86,0-15.64-0.12-23.34-0.36
		c-7.71-0.24-15.49-0.55-23.34-0.91c-2.91-0.24-5.82-0.42-8.73-0.55c-2.91-0.12-5.82-0.24-8.73-0.36l-0.87,4.36
		c15.41,0.61,27.99,1.85,37.73,3.73c9.74,1.88,17.38,4.42,22.91,7.64c5.52,3.21,9.3,7.12,11.34,11.73
		c2.03,4.61,3.05,9.88,3.05,15.82v5.54c0,1.88-0.15,3.73-0.44,5.54c-0.59,6.79-0.95,13.54-1.09,20.27
		c-0.15,6.73-0.81,13.48-1.96,20.27c-1.17,6.79-2.84,13.51-5.02,20.18c-2.18,6.67-5.45,13.27-9.82,19.81l7.42,2.55
		c13.67-3.27,29.16-5.52,46.46-6.73c17.3-1.21,33.81-2.06,49.51-2.54v-6h-5.24c-8.14,0-14.54-1.82-19.19-5.45
		c-4.66-3.64-8.15-7.94-10.47-12.91c-1.46-3.03-2.55-6.18-3.27-9.45c-0.73-3.27-1.31-6.39-1.75-9.36c-0.44-2.97-0.65-5.67-0.65-8.09
		v-5.63v-6.64c0-2.6,0.14-5.45,0.44-8.54c0.28-3.09,0.79-6.33,1.53-9.73c0.72-3.39,1.67-6.73,2.84-10
		c1.45-3.76,3.34-7.39,5.67-10.91c2.32-3.52,5.38-6.64,9.16-9.36c3.77-2.73,8.21-4.88,13.31-6.45c5.08-1.57,11.12-2.36,18.1-2.36
		c8.43,0,15.93,1,22.47,3c6.54,2,12.36,4.57,17.45,7.72c5.09,3.15,9.38,6.73,12.87,10.72s6.33,8.03,8.51,12.09
		c2.18,4.06,3.77,7.97,4.8,11.73c1.02,3.76,1.53,6.97,1.53,9.63v8.54c0,10.91-0.95,21.69-2.84,32.35
		c-1.9,10.67-6.33,21.27-13.31,31.81l7.42,2.55c13.96-3.27,29.81-5.52,47.55-6.73c17.73-1.21,34.61-2.06,50.6-2.54v-6h-5.24
		c-4.36,0-8.14-0.6-11.34-1.82c-3.2-1.21-6.11-2.88-8.73-5c-2.62-2.12-4.8-4.55-6.55-7.27c-1.75-2.73-3.2-5.66-4.36-8.81
		c-1.46-3.52-2.48-7.09-3.05-10.73c-0.59-3.63-1.09-7.09-1.53-10.36c-0.44-3.27-0.65-6.18-0.65-8.73v-6V58.63
		c0-6.18-1.02-12.12-3.06-17.81c-2.04-5.7-7.27-11.46-15.71-17.27c8.14-2.43,17.16-4.57,27.05-6.45c9.89-1.88,19.92-2.82,30.11-2.82
		c10.47,0,19.56,1,27.27,3c7.7,2,14.32,4.64,19.85,7.91c5.52,3.27,10.04,7,13.53,11.18c3.49,4.18,6.25,8.45,8.29,12.82
		c2.03,4.36,3.41,8.63,4.15,12.82c0.72,4.18,1.09,7.85,1.09,10.99c0,11.39-1.09,22.72-3.27,33.99
		c-2.18,11.27-7.05,22.42-14.62,33.44l7.86,2.55c13.96-3.27,29.45-5.52,46.46-6.73c17.01-1.21,33.37-2.06,49.08-2.54v-6
		c-6.69,0-12.15-0.57-16.36-1.73C1096,124.82,1092.66,123.34,1090.19,121.52 M1573.78,127.7c-6.69,0-12.15-0.57-16.36-1.73
		c-4.22-1.15-7.56-2.63-10.03-4.45c-2.48-1.82-4.36-3.87-5.67-6.18c-1.31-2.3-2.4-4.55-3.27-6.73c-3.2-8.12-4.73-16.33-4.58-24.63
		c0.14-8.3,0.22-16.51,0.22-24.63c0-7.03-2.47-13.91-7.42-20.63c-4.95-6.73-12.22-12.66-21.81-17.81
		c-9.6-5.15-21.53-9.3-35.77-12.45c-14.26-3.15-30.69-4.72-49.3-4.72c-14.55,0-28.58,1.03-42.1,3.09
		c-13.52,2.06-26.1,4.85-37.74,8.36c-10.76-4.24-22.9-7.27-36.43-9.09c-13.52-1.82-27.56-2.73-42.1-2.73
		c-7.27,0-14.4,0.18-21.38,0.55c-6.98,0.36-14.11,0.79-21.38,1.27c-10.77,0.61-21.38,1.18-31.85,1.72
		c-10.47,0.55-21.23,0.82-32.28,0.82c-7.86,0-15.64-0.12-23.34-0.36c-7.71-0.24-15.49-0.55-23.34-0.91
		c-2.91-0.24-5.82-0.42-8.73-0.55c-2.91-0.12-5.82-0.24-8.73-0.36l-0.87,4.36c15.41,0.61,27.99,1.85,37.74,3.73
		c9.74,1.88,17.38,4.42,22.9,7.64c5.52,3.21,9.3,7.12,11.34,11.73c2.03,4.61,3.05,9.88,3.05,15.82v5.54c0,1.88-0.15,3.73-0.44,5.54
		c-0.59,6.79-0.95,13.54-1.09,20.27c-0.15,6.73-0.81,13.48-1.96,20.27c-1.17,6.79-2.84,13.51-5.02,20.18
		c-2.18,6.67-5.46,13.27-9.82,19.81l7.42,2.55c13.67-3.27,29.16-5.52,46.46-6.73c17.3-1.21,33.81-2.06,49.51-2.54v-6h-5.24
		c-8.15,0-14.54-1.82-19.2-5.45c-4.65-3.64-8.14-7.94-10.47-12.91c-1.46-3.03-2.55-6.18-3.27-9.45c-0.73-3.27-1.31-6.39-1.75-9.36
		c-0.44-2.97-0.65-5.67-0.65-8.09v-5.63v-6.64c0-2.6,0.14-5.45,0.44-8.54c0.28-3.09,0.79-6.33,1.53-9.73
		c0.72-3.39,1.67-6.73,2.84-10c1.45-3.76,3.34-7.39,5.67-10.91c2.32-3.52,5.38-6.64,9.16-9.36c3.78-2.73,8.21-4.88,13.31-6.45
		c5.09-1.57,11.13-2.36,18.11-2.36c8.43,0,15.93,1,22.47,3c6.55,2,12.36,4.57,17.45,7.72c5.09,3.15,9.38,6.73,12.87,10.72
		c3.49,4,6.33,8.03,8.51,12.09c2.18,4.06,3.77,7.97,4.8,11.73c1.02,3.76,1.53,6.97,1.53,9.63v8.54c0,10.91-0.95,21.69-2.84,32.35
		c-1.89,10.67-6.33,21.27-13.31,31.81l7.42,2.55c13.96-3.27,29.81-5.52,47.55-6.73c17.73-1.21,34.61-2.06,50.6-2.54v-6h-5.24
		c-4.36,0-8.15-0.6-11.34-1.82c-3.2-1.21-6.11-2.88-8.73-5c-2.62-2.12-4.8-4.55-6.55-7.27c-1.75-2.73-3.2-5.66-4.36-8.81
		c-1.46-3.52-2.48-7.09-3.06-10.73c-0.59-3.63-1.09-7.09-1.53-10.36c-0.44-3.27-0.66-6.18-0.66-8.73v-6V58.63
		c0-6.18-1.02-12.12-3.06-17.81c-2.04-5.7-7.27-11.46-15.71-17.27c8.14-2.43,17.16-4.57,27.05-6.45c9.89-1.88,19.92-2.82,30.1-2.82
		c10.47,0,19.56,1,27.27,3c7.7,2,14.32,4.64,19.85,7.91c5.52,3.27,10.04,7,13.53,11.18c3.49,4.18,6.25,8.45,8.29,12.82
		c2.03,4.36,3.41,8.63,4.14,12.82c0.72,4.18,1.09,7.85,1.09,10.99c0,11.39-1.09,22.72-3.27,33.99
		c-2.18,11.27-7.06,22.42-14.62,33.44l7.86,2.55c13.96-3.27,29.45-5.52,46.46-6.73c17.01-1.21,33.37-2.06,49.08-2.54V127.7z
		 M1637.39,94.56c-5.09-7.15-7.64-14.12-7.64-20.9h149.64c12.5,0,23.56,1.12,33.16,3.36c9.6,2.24,18.17,5.3,25.74,9.18l9.16-2.73
		c-5.53-4.24-8.29-8.48-8.29-12.73c0-2.18,0.72-4.33,2.18-6.45c1.45-2.12,3.34-4.15,5.67-6.09l-10.91-3.63
		c-5.82,2.06-11.86,3.66-18.11,4.82c-6.26,1.15-13.16,1.72-20.72,1.72h-165.35c2.03-5.94,6.11-11.81,12.22-17.63
		c6.11-5.81,13.96-11.05,23.56-15.72c9.6-4.66,20.87-8.45,33.81-11.36c12.94-2.91,27.27-4.36,42.97-4.36
		c20.65,0,37.81,1.97,51.48,5.91c13.67,3.94,25.74,9.49,36.21,16.63c8.43-0.97,16.8-1.64,25.08-2c8.29-0.36,16.65-0.6,25.09-0.73
		c-16.58-10.66-36.14-18.11-58.68-22.36c-22.54-4.24-48.79-6.36-78.75-6.36c-22.98,0-44.93,1.75-65.87,5.26s-39.42,8.38-55.41,14.62
		c-16,6.23-28.72,13.56-38.17,21.96c-9.45,8.41-14.18,17.52-14.18,27.32c0,10.65,4.43,20.27,13.31,28.86
		c8.87,8.59,21.16,15.95,36.86,22.06c15.71,6.11,34.25,10.8,55.62,14.07c21.38,3.26,44.57,4.9,69.58,4.9
		c18.61,0,36.21-0.97,52.79-2.91c16.58-1.94,31.41-4.91,44.5-8.91c13.09-4,24.06-9,32.94-15c8.86-6,14.76-13,17.67-21l-55.4,2.18
		c-0.59,5.34-3.42,10.27-8.51,14.81c-5.09,4.55-11.93,8.51-20.5,11.91c-8.58,3.39-18.54,6.03-29.89,7.91
		c-11.34,1.88-23.27,2.82-35.77,2.82c-18.32,0-34.61-1.88-48.86-5.63c-14.25-3.76-26.25-8.54-35.99-14.36
		C1649.89,108.2,1642.48,101.71,1637.39,94.56 M2055.63,82.66c-11.78,2.73-25.09,4.09-39.92,4.09c-9.89,0-19.34-0.55-28.36-1.64
		v-8.36c0-9.09,0.8-18.21,2.4-27.36c1.59-9.15,4.43-18.27,8.51-27.36c8.73-2.54,18.68-4.88,29.89-7
		c11.19-2.12,22.31-3.18,33.37-3.18c8.73,0,16.21,0.88,22.47,2.64c6.25,1.76,11.35,4.03,15.27,6.82c3.93,2.79,6.83,5.85,8.73,9.18
		c1.89,3.33,2.84,6.51,2.84,9.54c0,5.7-2.18,11.33-6.55,16.91c-4.36,5.57-10.62,10.57-18.76,15
		C2077.37,76.36,2067.41,79.93,2055.63,82.66 M2226.14,115.27c0-2.78-1.82-5.21-5.46-7.27c-3.64-2.06-8.94-3.09-15.92-3.09
		c-5.24,0-10.47,0.67-15.71,2c-5.24,1.34-7.85,3.21-7.85,5.64c0,1.7,1.01,3.12,3.05,4.27c2.03,1.15,4.21,2.09,6.55,2.81
		c2.32,0.73,4.5,1.36,6.55,1.91c2.03,0.55,2.92,1.08,3.05,1.55c0.45,1.59-0.19,2.55-3.01,4.2c-2.96,1.61-6.6,3.26-11.17,3.88
		c-4.84,0.51-17.13-0.12-24.36-2.64c-4.36-1.57-8.37-3.39-12-5.45c-3.64-2.06-7.2-4.18-10.69-6.36
		c-8.73-5.21-18.47-10.12-29.23-14.72c-10.77-4.61-23.13-9.56-37.09-12.35c12.5-2.18,24.28-5,35.34-8.45
		c11.05-3.45,20.73-7.39,29.01-11.81c8.29-4.42,14.76-9.3,19.42-14.63c4.65-5.33,6.98-10.97,6.98-16.91c0-5.46-2.69-10.3-8.07-14.54
		c-5.39-4.24-12.51-7.84-21.38-10.81c-8.88-2.97-18.98-5.21-30.32-6.73c-11.34-1.51-23.12-2.27-35.34-2.27
		c-12.51,0-24,0.55-34.47,1.64c-10.47,1.09-21.52,2.48-33.15,4.18c-15.71,2.3-30.61,4-44.72,5.09c-14.11,1.09-29.74,1.64-46.9,1.64
		h-7.86v6.18c6.39,0,11.63,0.43,15.71,1.27c4.07,0.85,7.42,2,10.04,3.46c2.62,1.45,4.65,3.18,6.11,5.18c1.45,2,2.62,4.09,3.49,6.27
		c2.32,5.09,3.71,10.24,4.15,15.45c0.44,5.21,0.66,10.48,0.66,15.81v13.27c0,9.45-1.24,18.9-3.71,28.36
		c-2.47,9.45-7.35,18.72-14.61,27.81c16.86-0.25,33.74-0.58,50.6-1c16.87-0.43,33.74-0.63,50.61-0.63l1.75-4.18
		c-8.73-1.69-15.49-3.91-20.29-6.63c-4.8-2.73-8.36-6.03-10.69-9.91c-2.33-3.75-3.93-7.57-4.8-11.45c-0.87-3.87-1.6-7.75-2.18-11.63
		c4.36,0.25,8.79,0.45,13.31,0.63c4.5,0.18,8.94,0.27,13.31,0.27c12.22,3.03,22.17,6.21,29.88,9.54c7.7,3.34,15.93,7.31,24.65,11.91
		c6.98,3.64,14.25,7.12,21.82,10.45c7.56,3.33,15.71,7.5,24.43,9.98c8.73,2.48,18.1,4.48,28.14,6c12.28,1.79,31.1,0.28,40.77-1.6
		c8.66-2.01,12.8-3.26,19.45-6.27c6.15-3.01,11.62-5.87,15.85-9.21C2224.03,122.03,2226.14,118.66,2226.14,115.27"/>
	<path d="M671.33,289.25c0.58,1.58,0.87,3.22,0.87,4.91c0,4.36-1.89,8.33-5.67,11.91c-3.78,3.57-8.94,6.63-15.49,9.18
		c-6.55,2.54-14.33,4.52-23.34,5.91c-9.02,1.39-18.62,2.09-28.79,2.09c-21.82,0-41.01-1.85-57.59-5.55
		c-16.58-3.7-30.47-8.59-41.66-14.66c-11.2-6.06-19.71-13.01-25.52-20.84c-5.82-7.83-8.73-15.87-8.73-24.12
		c0-6.8,2.18-13.42,6.55-19.85c4.36-6.43,10.91-12.14,19.63-17.11c8.73-4.98,19.78-8.95,33.16-11.92
		c13.37-2.97,29.08-4.46,47.11-4.46c12.22,0,23.63,0.85,34.25,2.55c10.61,1.69,20.07,4.09,28.36,7.18
		c8.29,3.09,15.05,6.73,20.29,10.91c5.24,4.18,8.58,8.81,10.04,13.91l59.77-5.82c-7.85-6.42-17.16-11.9-27.92-16.45
		c-10.76-4.54-22.76-8.27-35.99-11.18c-13.24-2.91-27.48-5.06-42.75-6.45c-15.27-1.39-31.19-2.09-47.77-2.09
		c-22.68,0-44.06,1.73-64.13,5.18c-20.07,3.45-37.74,8.18-53,14.18c-15.27,6-27.34,13.09-36.21,21.27
		c-8.87,8.18-13.31,17.06-13.31,26.63c0,10.3,5.09,19.6,15.27,27.9c10.17,8.3,23.7,15.39,40.57,21.27
		c16.86,5.88,36.21,10.42,58.02,13.63c21.81,3.21,44.35,4.82,67.62,4.82c40.14,0,72.78-4.42,97.94-13.27
		c25.15-8.85,41.95-21.39,50.39-37.63l-64.13,3.27C670.02,286.11,670.75,287.68,671.33,289.25 M919.34,264.49h-85.07l43.63-44.24
		c8.43,7.2,15.77,14.51,22.03,21.94C906.18,249.63,912.65,257.06,919.34,264.49 M1047.82,315.56c-6.84-2.4-12.87-5.13-18.1-8.18
		c-5.24-3.06-9.46-6.08-12.65-9.08L910.18,197.42c-19.2,0.36-38.39,0.84-57.59,1.44c-19.2,0.6-38.39,0.9-57.58,0.9v4.31
		c11.63,0,23.78,0.48,36.43,1.44c12.65,0.96,23.34,3.12,32.07,6.47l-99.47,90.99c-2.33,2.04-5.09,4.17-8.29,6.38
		c-3.2,2.22-6.84,4.26-10.91,6.11c-4.07,1.86-8.58,3.48-13.52,4.86c-4.95,1.38-10.33,2.25-16.15,2.61l2.18,6.29
		c8.43-0.6,16.8-1.08,25.08-1.44c8.29-0.36,16.65-0.54,25.09-0.54c7.27,0,14.46,0.12,21.6,0.36c7.12,0.24,14.32,0.6,21.6,1.08
		c1.45-1.68,3.19-3.14,5.24-4.4c2.03-1.26,4.21-2.55,6.54-3.87c-3.2-0.36-6.62-0.72-10.25-1.08c-3.64-0.36-6.91-0.87-9.82-1.53
		c-2.91-0.66-5.31-1.53-7.2-2.61c-1.89-1.08-2.84-2.52-2.84-4.32c0-1.68,0.72-3.41,2.18-5.21c1.45-1.8,2.91-3.53,4.36-5.21
		l27.49-28.23h100.34l34.47,37.22c1.16,1.08,1.75,2.34,1.75,3.78c0,2.4-2.48,4.58-7.42,6.56c-4.95,1.98-10.33,2.97-16.14,2.97
		c0,1.08,0.14,2.16,0.44,3.24c0.29,1.08,0.72,2.16,1.31,3.24c11.63-0.72,23.27-1.23,34.9-1.53c11.63-0.3,23.41-0.45,35.34-0.45
		c13.67,0,27.27,0.21,40.79,0.63c13.53,0.42,26.98,1.23,40.35,2.43l2.18-6.47c-8.44,0-16.66-0.78-24.65-2.34
		C1062.07,319.94,1054.65,317.96,1047.82,315.56 M1531.97,322.36c-6.69,0-12.15-0.57-16.36-1.73c-4.22-1.15-7.57-2.63-10.04-4.45
		c-2.47-1.82-4.36-3.87-5.67-6.18c-1.31-2.3-2.4-4.55-3.27-6.73c-3.2-8.12-4.73-16.33-4.58-24.63c0.14-8.3,0.22-16.51,0.22-24.63
		c0-7.03-2.47-13.91-7.42-20.63c-4.95-6.73-12.22-12.66-21.81-17.81c-9.6-5.15-21.53-9.3-35.78-12.45
		c-14.25-3.15-30.69-4.72-49.29-4.72c-14.55,0-28.58,1.03-42.1,3.09c-13.53,2.06-26.11,4.85-37.74,8.36
		c-10.76-4.24-22.9-7.27-36.43-9.09c-13.53-1.82-27.56-2.73-42.1-2.73c-7.28,0-14.4,0.18-21.38,0.55
		c-6.98,0.36-14.11,0.79-21.38,1.27c-10.77,0.61-21.38,1.18-31.85,1.73c-10.47,0.55-21.23,0.82-32.28,0.82
		c-7.85,0-15.64-0.12-23.34-0.36c-7.71-0.24-15.49-0.55-23.34-0.91c-2.91-0.24-5.82-0.42-8.73-0.55c-2.91-0.12-5.82-0.24-8.73-0.36
		l-0.87,4.36c15.41,0.61,27.99,1.85,37.74,3.73c9.74,1.88,17.38,4.43,22.91,7.64c5.52,3.21,9.3,7.12,11.34,11.73
		c2.03,4.61,3.05,9.88,3.05,15.82v5.54c0,1.88-0.15,3.73-0.44,5.54c-0.59,6.79-0.95,13.54-1.09,20.27
		c-0.15,6.72-0.8,13.48-1.96,20.27c-1.17,6.79-2.84,13.51-5.02,20.18c-2.18,6.67-5.46,13.27-9.82,19.82l7.42,2.54
		c13.67-3.27,29.15-5.52,46.46-6.73c17.3-1.21,33.81-2.06,49.51-2.54v-6h-5.24c-8.15,0-14.55-1.82-19.2-5.45
		c-4.66-3.64-8.15-7.94-10.47-12.91c-1.46-3.03-2.55-6.18-3.27-9.45c-0.73-3.27-1.31-6.39-1.75-9.36c-0.44-2.97-0.65-5.67-0.65-8.09
		v-5.63v-6.64c0-2.6,0.14-5.45,0.44-8.54c0.29-3.09,0.8-6.33,1.53-9.73c0.72-3.39,1.67-6.73,2.84-10c1.45-3.76,3.34-7.39,5.67-10.91
		c2.32-3.52,5.38-6.64,9.16-9.36c3.78-2.73,8.21-4.88,13.31-6.45c5.09-1.57,11.13-2.36,18.11-2.36c8.43,0,15.93,1,22.47,3
		c6.55,2,12.36,4.57,17.45,7.72c5.09,3.15,9.38,6.73,12.87,10.72c3.49,4,6.33,8.03,8.51,12.09c2.18,4.06,3.78,7.97,4.8,11.73
		c1.01,3.76,1.53,6.97,1.53,9.63v8.54c0,10.91-0.95,21.69-2.84,32.35c-1.89,10.67-6.33,21.27-13.31,31.81l7.42,2.54
		c13.96-3.27,29.81-5.52,47.55-6.73c17.74-1.21,34.61-2.06,50.61-2.54v-6h-5.24c-4.36,0-8.15-0.6-11.34-1.82
		c-3.21-1.21-6.11-2.88-8.73-5c-2.62-2.12-4.8-4.55-6.55-7.27c-1.75-2.73-3.2-5.66-4.36-8.81c-1.46-3.52-2.48-7.09-3.05-10.72
		c-0.59-3.64-1.09-7.09-1.53-10.37c-0.44-3.27-0.65-6.18-0.65-8.73v-6v-10.36c0-6.18-1.02-12.12-3.05-17.81
		c-2.04-5.7-7.28-11.45-15.71-17.27c8.14-2.42,17.16-4.57,27.05-6.45c9.88-1.88,19.92-2.82,30.1-2.82c10.47,0,19.56,1,27.27,3
		c7.7,2,14.32,4.64,19.85,7.91c5.52,3.27,10.04,7,13.53,11.18c3.49,4.18,6.25,8.45,8.29,12.82c2.03,4.36,3.42,8.63,4.15,12.82
		c0.72,4.18,1.09,7.85,1.09,10.99c0,11.39-1.09,22.72-3.27,33.99c-2.18,11.27-7.06,22.42-14.62,33.45l7.85,2.54
		c13.96-3.27,29.45-5.52,46.46-6.73c17.02-1.21,33.38-2.06,49.08-2.54V322.36z M1862.46,233.43c0-7.41-3.16-13.76-9.46-19.04
		c-6.31-5.29-14.93-9.63-25.85-13.03c-10.92-3.4-23.84-5.89-38.76-7.47c-14.93-1.58-31-2.37-48.23-2.37c-13.85,0-26.85,0.73-39,2.19
		c-12.16,1.46-24,3.28-35.54,5.46c-11.54,2.19-22.85,4.62-33.92,7.29c-11.07,2.67-22.31,5.22-33.69,7.65
		c-5.85,1.22-11.54,2.1-17.08,2.64c-5.54,0.55-11.54,0.82-18,0.82c-6.16,0-12.31-0.21-18.46-0.63c-6.16-0.43-12.31-1.01-18.46-1.73
		v9.11c9.84,0.61,18.61,1.46,26.31,2.55c7.69,1.09,14.15,3.4,19.38,6.92c3.07,1.94,5.54,4.31,7.38,7.11
		c1.85,2.8,3.23,5.74,4.16,8.84c0.92,3.1,1.45,6.26,1.61,9.48c0.15,3.22,0.23,6.16,0.23,8.84v5.65c0,4.86-0.16,10.05-0.46,15.58
		c-0.31,5.53-1.15,11.11-2.54,16.76c-1.38,5.65-3.54,11.15-6.46,16.49c-2.93,5.35-7.15,10.2-12.69,14.58l9.23,2.37
		c4.92-2.31,11-4.31,18.23-6.01c7.23-1.7,14.77-3.19,22.61-4.46c7.85-1.28,15.93-2.37,24.23-3.28c8.31-0.91,16.15-1.67,23.54-2.28
		c-6.46-9.84-11.85-19.77-16.15-29.79c-4.31-10.02-6.46-20.2-6.46-30.52c0-3.76,0.3-7.93,0.93-12.48c0.61-4.56,1.92-9.14,3.92-13.76
		c2-4.61,4.85-9.05,8.54-13.3c3.69-4.25,8.69-8.02,15-11.29c6.3-3.28,14.08-5.92,23.31-7.93c9.23-2,20.46-3,33.69-3
		c12.61,0,23.84,0.85,33.69,2.56c9.84,1.71,18.07,4.08,24.69,7.12c6.61,3.05,11.61,6.61,15,10.69c3.38,4.08,5.08,8.49,5.08,13.24
		c0,3.53-1.23,7.52-3.69,11.97c-2.47,4.45-6.31,8.62-11.54,12.51c-5.24,3.9-11.85,7.19-19.84,9.87c-8.01,2.68-17.54,4.02-28.61,4.02
		c-4.62,0-9-0.43-13.15-1.28c-4.15-0.85-7.85-1.94-11.07-3.28c-3.23-1.34-5.77-2.85-7.62-4.56c-1.85-1.7-2.77-3.46-2.77-5.28
		c0-2.55,1.53-4.61,4.61-6.19c3.07-1.58,7.69-2.85,13.85-3.83l-4.15-4.01l-73.84,12.93c5.23,8.02,15.69,14.09,31.38,18.22
		c15.69,4.13,33.69,6.19,54,6.19c17.54,0,34.31-1.21,50.31-3.64c15.99-2.43,30.07-5.8,42.23-10.11c12.15-4.31,21.92-9.44,29.31-15.4
		C1858.77,247.16,1862.46,240.6,1862.46,233.43"/>
</g>
</svg>
