<?xml version="1.0" encoding="utf-8"?>
<!-- Generator: Adobe Illustrator 25.2.3, SVG Export Plug-In . SVG Version: 6.00 Build 0)  -->
<svg version="1.1" id="Ebene_1" xmlns="http://www.w3.org/2000/svg" xmlns:xlink="http://www.w3.org/1999/xlink" x="0px" y="0px"
	 viewBox="0 0 637.58 637.52" style="enable-background:new 0 0 637.58 637.52;" xml:space="preserve">
<style type="text/css">
	.st0{font-family:'BallyhaunisNF';}
	.st1{font-size:396.4196px;}
	.st2{font-size:189.694px;}
	.st3{fill:#E42321;}
</style>
<text transform="matrix(2.4 0 0 1 -145.0133 624.0554)" class="st0 st1"> </text>
<text transform="matrix(2.4 0 0 1 -12.0797 566.6774)" class="st0 st2"> </text>
<text transform="matrix(2.4 0 0 1 -95.8473 574.4528)" class="st0 st2"> </text>
<g>
	<path class="st3" d="M393.85,308.96L637.7,636.8H495.44l-99.76-140.76c-19.15-28.15-56.25-78.89-77.41-111.59
		c-19.15,29.97-51.21,74.35-77.41,111.59L141.11,636.8H0.86l243.85-327.84L17.99,1.1h137.33l90.69,126.23
		c22.17,30.88,55.13,77.08,74.28,107.05c19.15-29.97,53.22-76.17,75.39-107.05L485.36,1.1h136.22L393.85,308.96z"/>
</g>
</svg>
